<?xml version="1.0" encoding="utf-8"?>
<!-- Generator: Adobe Illustrator 21.1.0, SVG Export Plug-In . SVG Version: 6.00 Build 0)  -->
<svg version="1.1" id="Layer_1" xmlns="http://www.w3.org/2000/svg" xmlns:xlink="http://www.w3.org/1999/xlink" x="0px" y="0px"
	 viewBox="0 0 1080 260" style="enable-background:new 0 0 1080 260;" xml:space="preserve">
<path d="M111.9,49.7v60.1H93.5V82.4H41.9v27.5H23.5V49.7h18.4v27.5h51.7V49.7H111.9z M433,49.7v49.5l-57.8-49.5h-18.4v60.1h18.4
	V60.4l57.8,49.5h18.4V49.7H433z M876.2,49.7v49.5l-57.8-49.5H800v60.1h18.4V60.4l57.8,49.5h18.4V49.7H876.2z M652.2,54.9v-5.2h-62.5
	h-9.2h-9.2v60.1h18.4V82.4h62.5v-5.2h-62.5V54.9H652.2z M300,103.1v6.3h-13.4c0,0-19.8,0-22.6-8.6c0,0-9.8,9.6-42.9,9.2
	c-33-0.4-44.5-4.6-45.6-16.9c-1.1-12.3,24.7-15.9,39.4-15.9c14.8,0,32.8-1.9,32.8-1.9s15.2-0.5,15.5-7.7c0.4-7.2-5.6-14.1-28.1-14.1
	c-28.2,0-34.6,12.1-35,16.8H183c0,0-8.8-21.4,51.8-21.4c0,0,45-1.1,48.9,20.6v21.9C283.6,91.4,284.3,103,300,103.1z M263.2,76.2
	c-7.1,2.7-26.3,4.9-33.7,5.6c-7.5,0.7-28.8,3.6-30.4,11.3c-2.1,10.1,17.3,15.8,38.7,11.7c17.1-3.4,25.4-13.4,25.4-13.4V76.2z
	 M1003.6,79.8V85h35.5v0.3c-0.8,3.6-5.1,19.7-37.2,19.6c-37.3-0.1-38.8-19.4-39-25.2c-0.2-5.8,4.6-24.9,36.6-25.5
	c28.1-0.6,37.9,15.8,37.9,15.8h15.8c-9.5-17.5-27.5-22.9-53.7-22.8c-27.3,0.1-57.4,6.5-57.4,32.5c0,24.2,28.6,30.7,56.3,31.2
	c26,0.4,39.2-8,40.7-9v6.8h17.8V85v-5.1v-0.1H1003.6z M750.4,77.2v5.6h0h-15.1h-23.6c0.2,34.7,0.3,56.8,11.8,56.8
	c10.3,0,11.1-17.2,11.1-39.8H749c-0.9,22.8-7.8,46.1-25.6,46.1c-20,0-28.3-27.5-28.3-65.5c0-37.9,8.9-68.7,28.3-68.7
	C743.9,11.8,749.7,40.8,750.4,77.2L750.4,77.2z M711.6,77.2h23.6c-0.3-34.1-0.7-59-11.8-59C713.5,18.2,712,43.1,711.6,77.2z
	 M575.2,220.8h-3.9c-0.1,2.4,0.2,4.4,1,6.1c0.8,1.7,1.9,3.1,3.3,4.2c1.4,1.1,3.2,1.9,5.3,2.4c2.1,0.5,4.3,0.8,6.7,0.8
	c2.4,0,4.4-0.2,6.2-0.6c1.7-0.4,3.2-1,4.3-1.6c1.2-0.7,2.1-1.4,2.7-2.2c0.7-0.8,1.2-1.7,1.5-2.5c0.4-0.8,0.6-1.6,0.7-2.3
	c0.1-0.7,0.1-1.3,0.1-1.7c0-1.6-0.3-2.9-0.8-4.1c-0.5-1.1-1.3-2.1-2.3-2.8c-1-0.8-2.1-1.4-3.4-1.9c-1.3-0.5-2.6-1-4.1-1.3l-9.9-2.3
	c-0.8-0.2-1.6-0.4-2.4-0.7c-0.7-0.3-1.4-0.7-2-1.1c-0.6-0.5-1-1-1.3-1.7c-0.3-0.7-0.5-1.5-0.5-2.4c0-1.4,0.3-2.7,0.9-3.6
	c0.6-1,1.3-1.8,2.3-2.4c0.9-0.6,2-1,3.3-1.3c1.2-0.3,2.5-0.4,3.9-0.4c1.4,0,2.8,0.2,4.1,0.6c1.3,0.4,2.5,0.9,3.5,1.7
	c1,0.7,1.8,1.7,2.5,2.8c0.6,1.1,1,2.4,1.1,3.9h3.9c0-2-0.4-3.7-1.2-5.2c-0.8-1.5-1.9-2.8-3.3-3.8c-1.4-1-3-1.8-4.8-2.3
	c-1.8-0.5-3.7-0.8-5.8-0.8c-2.9,0-5.2,0.4-7,1.2c-1.8,0.8-3.3,1.7-4.3,2.8c-1,1.1-1.8,2.3-2.1,3.6c-0.4,1.3-0.6,2.4-0.6,3.3
	c0,1.5,0.3,2.8,0.8,3.9c0.5,1,1.2,1.9,2,2.7c0.8,0.7,1.8,1.3,2.9,1.7c1.1,0.4,2.3,0.8,3.5,1.1l9.1,2.1c0.9,0.2,1.9,0.5,2.9,0.8
	c1,0.3,1.9,0.8,2.7,1.3c0.8,0.5,1.5,1.2,2,2c0.5,0.8,0.8,1.7,0.8,2.8c0,1.4-0.4,2.6-1.1,3.6c-0.7,1-1.6,1.8-2.7,2.4
	c-1.1,0.6-2.3,1.1-3.5,1.4c-1.3,0.3-2.4,0.4-3.5,0.4c-1.9,0-3.6-0.2-5.3-0.5c-1.6-0.3-3.1-0.9-4.3-1.7c-1.2-0.8-2.1-1.9-2.8-3.2
	C575.5,224.5,575.1,222.8,575.2,220.8z M637.9,194.8v38.7h3.9v-18.8H666v18.8h3.9v-38.7H666v16.8h-24.2v-16.8H637.9z M773.3,194.8
	v38.7h3.9v-32.7h0.1l23.8,32.7h4.3v-38.7h-3.9v32.7h-0.1l-23.8-32.7H773.3z M719.7,194.8l-16.4,38.7h4.1l4.9-12h18.6l5,12h4.2
	l-16-38.7H719.7z M713.5,218.4l8.2-19.8l7.9,19.8H713.5z M874.8,233.6v-19.7h-17.3v3.1h13.9c0,2.1-0.3,4-0.9,5.7
	c-0.6,1.7-1.5,3.2-2.7,4.5c-1.2,1.3-2.7,2.3-4.5,3c-1.8,0.7-3.8,1.1-6,1.1c-2.7,0-5-0.5-7-1.5c-1.9-1-3.5-2.3-4.8-3.9
	c-1.2-1.6-2.2-3.4-2.7-5.5c-0.6-2-0.9-4.1-0.9-6.2c0-2.1,0.3-4.2,0.9-6.2c0.6-2,1.5-3.8,2.7-5.4c1.2-1.6,2.8-2.9,4.8-3.9
	c1.9-1,4.3-1.5,7-1.5c1.9,0,3.7,0.3,5.2,0.9c1.6,0.6,2.9,1.4,4,2.3c1.1,0.9,2,2,2.7,3.1c0.7,1.1,1.1,2.3,1.2,3.4h3.9
	c-0.4-2.1-1.1-4-2.1-5.6c-1-1.6-2.3-2.9-3.8-4c-1.5-1.1-3.2-1.9-5.1-2.4c-1.9-0.5-3.9-0.8-6-0.8c-3.2,0-6,0.6-8.4,1.7
	c-2.4,1.1-4.4,2.6-6,4.4c-1.6,1.9-2.8,4-3.6,6.4c-0.8,2.4-1.2,5-1.2,7.6c0,2.7,0.4,5.2,1.2,7.6c0.8,2.4,2,4.6,3.6,6.4
	c1.6,1.8,3.6,3.3,6,4.4c2.4,1.1,5.2,1.7,8.4,1.7c1.5,0,2.9-0.1,4.3-0.4c1.4-0.3,2.7-0.7,3.9-1.4c1.2-0.6,2.3-1.4,3.3-2.4
	c1-1,1.9-2.2,2.5-3.6h0.1l0.5,7H874.8z M910.9,194.8v38.7h3.9v-18.8H939v18.8h3.9v-38.7H939v16.8h-24.2v-16.8H910.9z M991.6,194.8
	l-16.4,38.7h4.1l4.9-12h18.6l5,12h4.2l-16-38.7H991.6z M985.4,218.4l8.2-19.8l7.9,19.8H985.4z M1044.5,194.8v38.7h3.9v-38.7H1044.5z
	 M24,194.8v38.7h3.5v-32.7h0.1L49,233.5h3.9v-38.7h-3.5v32.7h-0.1l-21.4-32.7H24z M86,194.8v38.7h25.6v-3.1H89.5v-15.3H110V212H89.5
	v-14h21.9v-3.1H86z M138.6,194.8l10.2,38.7h3.8l9.3-34.6h0.1l9.3,34.6h3.7l10.1-38.7h-3.5l-8.4,33.9h-0.1l-9-33.9h-4.4l-9,33.9h-0.1
	l-8.3-33.9H138.6z M265,217.6v15.9h3.5v-15.9l14.5-22.8h-4.2l-12,19.6l-12.1-19.6h-4.1L265,217.6z M310,214.2c0,2.7,0.4,5.2,1.1,7.6
	c0.7,2.4,1.8,4.6,3.2,6.4c1.4,1.8,3.3,3.3,5.4,4.4c2.2,1.1,4.7,1.7,7.6,1.7c2.9,0,5.4-0.6,7.6-1.7c2.2-1.1,4-2.6,5.4-4.4
	c1.4-1.8,2.5-4,3.2-6.4c0.7-2.4,1.1-5,1.1-7.6c0-2.7-0.4-5.2-1.1-7.6c-0.7-2.4-1.8-4.6-3.2-6.4c-1.4-1.9-3.2-3.3-5.4-4.4
	c-2.2-1.1-4.7-1.7-7.6-1.7c-2.9,0-5.4,0.6-7.6,1.7c-2.2,1.1-4,2.6-5.4,4.4c-1.4,1.9-2.5,4-3.2,6.4C310.3,209,310,211.5,310,214.2z
	 M313.5,214.2c0-2.1,0.3-4.2,0.8-6.2c0.5-2,1.4-3.8,2.5-5.4c1.1-1.6,2.6-2.9,4.3-3.9c1.8-1,3.8-1.5,6.3-1.5c2.4,0,4.5,0.5,6.3,1.5
	c1.7,1,3.2,2.3,4.3,3.9c1.1,1.6,1.9,3.4,2.5,5.4c0.5,2,0.8,4.1,0.8,6.2c0,2.1-0.3,4.2-0.8,6.2c-0.5,2-1.4,3.9-2.5,5.5
	c-1.1,1.6-2.5,2.9-4.3,3.9c-1.7,1-3.8,1.5-6.3,1.5c-2.4,0-4.5-0.5-6.3-1.5c-1.7-1-3.2-2.3-4.3-3.9c-1.1-1.6-1.9-3.4-2.5-5.5
	C313.7,218.3,313.5,216.3,313.5,214.2z M375.8,194.8v38.7h3.5v-17.2h13.3c1.6-0.1,2.9,0.2,3.9,0.9c0.9,0.7,1.7,1.5,2.2,2.6
	c0.5,1.1,0.8,2.3,1,3.6c0.2,1.4,0.3,2.7,0.3,4.1c0,0.4,0.1,0.9,0.1,1.4c0,0.5,0.1,1.1,0.1,1.7c0,0.6,0.1,1.1,0.3,1.6
	c0.1,0.5,0.3,1,0.5,1.3h3.9c-0.4-0.5-0.7-1.1-0.9-2c-0.2-0.9-0.4-1.8-0.5-2.7c-0.1-1-0.2-1.9-0.2-2.8c0-0.9-0.1-1.7-0.1-2.4
	c-0.1-1.2-0.2-2.2-0.4-3.2c-0.2-1-0.6-1.9-1.1-2.6c-0.5-0.8-1.1-1.4-1.9-1.9c-0.8-0.5-1.8-0.8-3-1v-0.1c2.4-0.5,4.2-1.7,5.4-3.5
	c1.2-1.8,1.8-3.9,1.8-6.4c0-1.7-0.3-3.2-0.9-4.5c-0.6-1.3-1.4-2.3-2.4-3.1c-1-0.8-2.2-1.4-3.6-1.8c-1.4-0.4-2.8-0.6-4.3-0.6H375.8z
	 M379.3,213.2V198h13.1c2.7,0,4.7,0.7,6,2.1c1.3,1.4,2,3.3,2,5.6c0,1.2-0.2,2.2-0.6,3.2c-0.4,0.9-1,1.7-1.7,2.4
	c-0.7,0.7-1.6,1.1-2.5,1.5c-1,0.3-2,0.5-3,0.5H379.3z M435.8,194.8v38.7h3.5v-13.3l7-6.9l15.3,20.2h4.5L449,210.8l16.4-16h-4.7
	l-21.4,20.8v-20.8H435.8z"/>
</svg>
