<?xml version="1.0" encoding="utf-8"?>
<!-- Generator: Adobe Illustrator 21.1.0, SVG Export Plug-In . SVG Version: 6.00 Build 0)  -->
<svg version="1.1" id="Layer_1" xmlns="http://www.w3.org/2000/svg" xmlns:xlink="http://www.w3.org/1999/xlink" x="0px" y="0px"
	 viewBox="0 0 720 426" style="enable-background:new 0 0 720 426;" xml:space="preserve">
<style type="text/css">
	.st0{fill:#EC1E24;}
</style>
<path class="st0" d="M443.4,141.5c-0.3-2.8,0.7-4.3,3.1-4.6c2.6-0.6,8.4-0.4,17.2,0.4c18.8,1.5,24.2,5.7,16.2,12.6
	c-2.1,2.4-3.1,4.1-3.1,5.2v50.6c0.9,0,4.2-3.8,10.1-11.3c5.9-7.5,9.3-11.3,10.2-11.3c3.2,0.1,10.6,5.4,22.3,16.1v-42.8
	c0-0.3,0-0.7,0-1.3c-2.1-6.4,1.9-8.2,11.8-5.2c6.9,1.2,16.5,3.5,28.8,6.8h58.9c2,0,4.8-2.7,8.4-8.2c3.4-5.2,6-7.9,8-8.2
	c19.4,3.7,33.4,12.8,41.9,27.4c-0.8,2.2-2.9,4-6.5,5.5c-4.3,1.8-6.4,4.3-6.6,7.6c-1,25.5-1.6,45.5-1.8,60.1
	c-0.3,15.3-0.3,28.4,0,39.4c0.5,21.4,2.7,41.2,6.4,59.3c2.5,12,5.8,19.5,9.8,22.5c4.1,2.7,7.6-0.1,10.5-8.2c0.7-1.8,1.6-4.5,2.8-8.2
	c4.3-13.6,7-19.8,8.3-18.6c0.5,0.2,0.3,2.8-0.7,7.9c-3.1,18.1-3.3,33.2-0.7,45.1c0.4,1.9,1.3,4.9,2.6,9.1c8.3,20.4,2,27.7-19,21.9
	c-27.2-10-43.5-39.2-49.1-87.5c-1.9-19.5-3.1-36.5-3.6-51c-0.5-15.3-0.7-34.7-0.3-58.4c-0.4,0.6-1.2,1.1-2.3,1.5
	c-3.1,0.5-5.6,4.6-7.5,12.2c-4.1,16.5-8.9,32.5-14.4,48.2c13.2,24.8,20.8,44.6,22.9,59.5c0.9,21.1-5.5,31.8-19,32.1
	c-12.2,1.1-17.2-7.5-14.9-25.9c0.8-14.7-0.4-25.9-3.4-33.6c-17.1,29.1-33.5,48.4-49.1,58c-0.3-0.2,0.7-2.2,2.9-5.9
	c9.5-10.2,21.4-38.9,35.7-86c-9.3-21.9-17.8-37.2-25.5-45.8c-0.9,43-2.9,71.9-6,86.6c-3.2,17.7-10.1,35.6-20.8,53.5
	c-16.7,21.1-31.7,35.4-45.1,42.8c-0.3-0.4,0.7-2,2.9-4.8c16.3-7.3,27.9-45.2,35-113.6c-21.3,8.7-31.5,3.3-30.8-16.4
	c-0.1-17-4.5-27.7-13.1-32.1v156.4c1.2,5.8-5.3,10-19.6,12.8c-9.4,2.3-14,0.1-13.8-6.5V292.6c-22,30-56.9,47.5-65.9,52.4
	c-0.3-0.2,0.5-1.8,2.5-4.8c12.6-9.4,45.7-52.2,60.2-128.5h-58.7c-2.5-0.1-4.5-1.1-6-3c-1.1-1.5-0.4-2.3,2.1-2.4h65.9V141.5z
	 M476.8,211.7v25.6c16.2,5,30.4,13,42.5,24.1v-49.7H476.8z M569.1,161.7c-7.9-0.2-12.2,0.4-13.1,1.8c-1.5,0.7-2.2,4.5-2,11.3v38.7
	c8.2,8.1,18.6,19.4,31.4,33.9c3.2-19.7,4.3-33,3.4-39.7c-0.5-6.7,0.3-10.8,2.5-12.1c2-1.9,12.6-0.6,31.6,3.9
	c3.2,0.8,5.3,1.3,6.4,1.5v-39.3H569.1z M130.8,300.2c-0.8,0-1.8,0-3.2,0.1c-11.3,2.1-16-0.6-14.2-8.3h-2.2c-2.4,0-3.5,1.5-3.5,4.4
	c0,0.3,0,0.5,0,0.6v30.7h14.2c2-1.9,4.4-5.5,7.1-10.8c2.7-5.4,4.8-8,6.4-7.9c6.1,1.5,16,7.3,29.6,17.5c3.6,2.8,5.4,4.8,5.3,5.8
	c0.1,0.9-1.9,1.3-5.9,1.2h-56.6v59.4c0.1,4.9-1,8-3.4,9.4c-1.8,1.6-7.1,2.9-15.9,4.1c-11.1,2.1-16.2-0.7-15.4-8.2v-64.6H24
	c-2.8-0.2-4.8-1.4-5.9-3.5c-0.3-1.7,1-2.4,4-2.3h50.8v-35.7h-5.8c0.2,5.9-0.8,9.5-2.9,10.7c-1.5,1.5-7,2.6-16.4,3.4
	c-10.3,1.5-15-0.5-14.2-5.8v-85.4c-1.6-9.4,11.2-8.6,38.3,2.3v-33.3h-46c-3.3-0.2-5.6-1.2-6.9-3.1c-0.3-1.3,1.3-1.9,5-1.9h47.9
	v-29.2c-0.2-6.5,0.7-10.2,2.9-11.1c1.8-1.4,7.2-1.5,16.1-0.3c18.4,1.9,24.2,5.7,17.2,11.4c-2,2.6-3.1,4.7-3.1,6.1v23.1h12.9
	c1.9,0,5-3.6,9.3-10.8c3.3-5.5,5.6-8.3,6.8-8.5c7.2,2.6,15.2,9.3,24.1,19.9c1.4,2.1,1.9,3.4,1.4,3.6c-0.1,0.5-1.4,0.7-4,0.7h-50.5
	v34.5c2.7,0,5.7-2.5,9.2-7.5c2.5-3.5,4.3-5.3,5.6-5.4c16.5,3.8,28.2,9.8,35.1,18.1c0.1,2.7-1.4,5.2-4.5,7.3c-2.3,1.6-3.3,3-3.2,4.4
	V290C147.7,296.7,142.3,300.2,130.8,300.2z M81.3,224.2c-9.9-0.7-14.6,2-14.2,8.2v19.9h45.7v-28.1H81.3z M112.8,258.1H67.1v27.5
	h45.7V258.1z M210.6,133.3c21.9,2.9,28.2,7.5,19,13.6c-3,2.9-4.5,5.2-4.5,6.9v35.4h25.1c1.3,0,4.1-3.8,8.5-11.4
	c4.2-7.3,6.9-11,8.2-11.1c4.3-0.4,15.3,6.2,33.1,19.9c2.8,2.1,4,4,3.7,5.5c-0.5,1.6-2.5,2.3-5.9,2.3H225v43.3h20
	c1.7,0,5.2-4.4,10.5-13.2c4.1-6.7,6.6-10,7.6-9.9c4,0,13.7,6.8,29.3,20.5c2.7,2.2,4,4.1,3.9,5.5c-0.2,1.5-1.8,2.2-4.8,2.3H225v41.5
	h29.3c1.3,0,3.5-2.6,6.6-7.7c2.8-4.7,4.8-7.1,6-7.2c15.5,3.2,29.5,10.6,41.8,22.2c0.2,1.5-1.6,3.4-5.5,5.7c-4.5,2.8-6.7,5.3-6.7,7.5
	v28.9c0.8,17.9-4.3,29.5-15.1,34.8c-4.3,2.5-10.1,4.2-17.4,4.8c-8.5,0.7-14.3,0.2-17.4-1.6c-1.7-1.2-2.3-3.6-1.9-7.2
	c4.6-6.4-1.9-12.7-19.6-18.9v55.6c-0.2,5.4-8.1,8.7-23.8,9.9c-7.2,0.2-10.8-1.7-10.9-5.8V289.7h-30.6c-3.5-0.2-6.2-1.2-8-2.9
	c-0.9-1.6,0.5-2.3,4.2-2.3h34.4v-41.5h-27c-2.8-0.1-4.9-0.9-6.3-2.5c-1.1-1.8-0.4-2.7,2.1-2.8h31.2v-43.3h-27.7
	c-3.6-0.1-6.5-1-8.7-2.6c-1.6-1.7-0.6-2.5,2.9-2.6h33.5V140c-0.2-4.5,0.9-7,3.2-7.4C195.1,131.7,200.8,131.9,210.6,133.3z
	 M259.8,289.7H225v50.9c5.7,1.6,11.6,2.2,17.7,2c5.7-0.2,9.3-1.2,10.9-2.9C258.2,334.8,260.2,318.2,259.8,289.7z M66.9,36.5L67,56.9
	l-34.2,0.2l-0.1-20.4l-12.2,0.1l0.2,44.6l12.2-0.1L32.8,61L67,60.8l0.1,20.4l12.2-0.1l-0.2-44.6L66.9,36.5z M291.3,35.3l0.2,36.7
	l-38.4-36.5l-12.2,0.1l0.2,44.6l12.2-0.1l-0.2-36.7l38.4,36.5l12.2-0.1l-0.2-44.6L291.3,35.3z M584.2,33.8l0.1,36.7L546,34
	l-12.2,0.1l0.2,44.6l12.2-0.1L546,41.9l38.4,36.5l12.2-0.1l-0.2-44.6L584.2,33.8z M436.2,38.4l0-3.9l-41.3,0.2l-6.1,0l-6.1,0
	l0.2,44.6l12.2-0.1L394.9,59l41.3-0.2l0-3.9l-41.3,0.2l-0.1-16.5L436.2,38.4z M194.2,66.8l-0.1-16.2c-2.6-16.1-33.9-15.1-33.9-15.1
	c-40,0.2-34.1,16-34.1,16l12.6-0.1c0.2-3.5,10.4-9.4,21.9-9.3c11.5,0.1,18.8,1.7,18.6,7.1C179,54.6,169,55,169,55s-12,1-21.7,1.5
	c-9.7,0.5-26.7,2.8-26,11.9c0.7,9.1,8.3,12.2,30.2,12.4c21.8,0.1,28.3-7,28.3-7c1.9,6.4,15,6.3,15,6.3l8.8,0l0-5.9
	C193.1,74.1,194.2,66.8,194.2,66.8z M179.2,65c0,0-5.5,5.9-16.8,8.9c-11.2,2.9-23.5,0.2-23.7-5.6c-0.2-5.8,13.2-6.5,18.1-7
	c4.9-0.6,17.6-1.5,22.3-3.5L179.2,65z M668.5,55.6l0,3.9l23.5-0.1l0,0.2c-0.5,2.7-3.3,14.6-24.6,14.7c-24.6,0.1-25.7-14.3-25.8-18.5
	c-0.1-4.3,3-18.5,24.1-19c18.6-0.5,25.1,11.6,25.1,11.6l10.4-0.1c-6.3-13-18.2-16.9-35.6-16.7c-18,0.2-37.9,5-37.8,24.3
	c0.1,18,19,22.7,37.3,22.9c17.2,0.2,25.9-6,26.9-6.8l0,5.1l11.8-0.1l-0.1-17.6l0-3.8l0,0L668.5,55.6z"/>
<path class="st0" d="M496.8,74.1l-5.3,0c0,0-0.1,19.2-7.5,19.6c-8.8,0.5-9-26-8.8-30.1l21.4-0.1c0,0,1.8-57.4-13.4-57.3
	c-15.2,0.1-13.7,57.5-13.7,57.5s-1.1,45.1,14.4,44.3C499.5,107.3,496.8,74.1,496.8,74.1z M483,19.8c8.2,0,8.9,32.6,8.9,32.6
	l-16.3,0.1C475.6,52.5,474.9,19.8,483,19.8z"/>
</svg>
